<svg xmlns="http://www.w3.org/2000/svg" width="30" height="30" viewBox="0 0 30 30">
    <g fill="none" fill-rule="evenodd">
        <path d="M-15-387h360v640H-15z"/>
        <path fill="#0F88EB" d="M0 0h30v30H0z"/>
        <path fill="#FFF" d="M16.016 15.812c0-.011-.004-1.162-.364-1.157H12.98c.074-1.326.097-2.52.121-3.588h2.612c-.03.002.07-1.097-.486-1.1h-4.494c.183-.624.407-1.284.668-1.967.006 0-1.22 0-1.64 1.042-.17.444-.67 2.113-1.579 3.819.319-.032 1.31-.058 1.883-1.1.119-.27.14-.308.303-.694h1.458c-.018.514-.08 3.262-.122 3.588H9.032c-.57-.005-.765 1.146-.79 1.157h3.341c-.199 2.419-1.401 4.466-3.583 6.076 1.043.294 2.083-.036 2.611-.463-.014-.01 1.156-1.028 1.822-3.414l2.733 3.182c-.009.011.394-1.3-.06-1.91-.398-.463-1.44-1.639-1.883-2.082l-.73.578c.205-.677.339-1.339.365-1.967h3.158zm5.77 3.472h-1.458l-1.458.868-.242-.868h-.608V10.95h3.765v8.333zm-4.98-9.49V20.44h1.154l.364 1.273 2.125-1.273H23V9.794h-6.194z"/>
        <path d="M0 0h30v30H0z"/>
    </g>
</svg>
